# xmcd
#
# Track frame offsets:
#	150
#	16895
#	34175
#	55590
#	72812
#	91817
#	109737
#	127870
#	145866
#	165478
#
# Disc length: 2436 seconds
#
# Revision: 1
# Processed by: cddbd v1.5.2PL0 Copyright (c) Steve Scherf et al.
# Submitted via: audiograbber 1.83.01
#
DISCID=7409820a
DTITLE=Chicago - Collector's Edition [CD3]
DYEAR=2009
DGENRE=Rock
TTITLE0=Hard To Say I'm Sorry
TTITLE1=Stay the Night
TTITLE2=Hard Habit To Break
TTITLE3=You're the Inspiration
TTITLE4=Will You Still Love Me
TTITLE5=I Don't Wanna Live Without Your Love
TTITLE6=Look Away
TTITLE7=You're Not Alone
TTITLE8=What Kind of Man Would I Be?
TTITLE9=No Tell Lover
EXTD=
EXTT0=
EXTT1=
EXTT2=
EXTT3=
EXTT4=
EXTT5=
EXTT6=
EXTT7=
EXTT8=
EXTT9=
PLAYORDER=
